<svg xmlns="http://www.w3.org/2000/svg" version="1.1" xmlns:xlink="http://www.w3.org/1999/xlink" xmlns:svgjs="http://svgjs.dev/svgjs" width="1500" height="342" viewBox="0 0 1500 342"><g transform="matrix(1,0,0,1,-0.7073066211289643,0.6133849038989183)"><svg viewBox="0 0 267 61" data-background-color="#000000" preserveAspectRatio="xMidYMid meet" height="342" width="1500" xmlns="http://www.w3.org/2000/svg" xmlns:xlink="http://www.w3.org/1999/xlink"><g id="tight-bounds" transform="matrix(1,0,0,1,0.12590057856095882,-0.10940490975974626)"><svg viewBox="0 0 266.7481988428781 61.218809819519514" height="61.218809819519514" width="266.7481988428781"><g><svg viewBox="0 0 266.7481988428781 61.218809819519514" height="61.218809819519514" width="266.7481988428781"><g><svg viewBox="0 0 266.7481988428781 61.218809819519514" height="61.218809819519514" width="266.7481988428781"><g id="textblocktransform"><svg viewBox="0 0 266.7481988428781 61.218809819519514" height="61.218809819519514" width="266.7481988428781" id="textblock"><g><svg viewBox="0 0 266.7481988428781 61.218809819519514" height="61.218809819519514" width="266.7481988428781"><g><svg><g></g><g></g></svg></g><g><svg><g><svg></svg></g><g></g></svg></g><g id="text-0"><svg viewBox="0 0 266.7481988428781 61.218809819519514" height="61.218809819519514" width="266.7481988428781"><g transform="matrix(1,0,0,1,0,0)"><svg width="212.48308490953946" viewBox="0.93 -37.664208984375 131.31086955597598 37.834208984375" height="61.218809819519514" data-palette-color="url(#71a8d877-cc90-4e42-8fb1-f188ba82fa3e)"></svg></g><g><svg xmlns="http://www.w3.org/2000/svg" xml:space="preserve" viewBox="10.064 2.5709999999999997 27.872 42.859" x="226.9364751141479" y="3.552713678800501e-15" height="61.21880981951951" width="39.8117237287302" class="icon-dxe-0" data-fill-palette-color="accent" id="dxe-0"></svg></g></svg></g></svg></g></svg></g></svg></g></svg></g><defs></defs><mask id="377b8972-c350-4ee5-b2b4-9ef05ede6c0b"><g id="SvgjsG8558"><svg viewBox="0 0 266.7481988428781 61.218809819519514" height="61.218809819519514" width="266.7481988428781"><g><svg viewBox="0 0 266.7481988428781 61.218809819519514" height="61.218809819519514" width="266.7481988428781"><g><svg viewBox="0 0 266.7481988428781 61.218809819519514" height="61.218809819519514" width="266.7481988428781"><g id="SvgjsG8557"><svg viewBox="0 0 266.7481988428781 61.218809819519514" height="61.218809819519514" width="266.7481988428781" id="SvgjsSvg8556"><g><svg viewBox="0 0 266.7481988428781 61.218809819519514" height="61.218809819519514" width="266.7481988428781"><g><svg><g></g><g></g></svg></g><g><svg><g><svg></svg></g><g></g></svg></g><g id="SvgjsG8555"><svg viewBox="0 0 266.7481988428781 61.218809819519514" height="61.218809819519514" width="266.7481988428781"><g transform="matrix(1,0,0,1,0,0)"><svg width="212.48308490953946" viewBox="0.93 -37.664208984375 131.31086955597598 37.834208984375" height="61.218809819519514" data-palette-color="url(#71a8d877-cc90-4e42-8fb1-f188ba82fa3e)"><path d="M2.39-3.71L2.39-24.37Q2.2-24.41 1.93-24.66 1.66-24.9 1.44-25.2 1.22-25.49 1.07-25.78 0.93-26.07 0.93-26.27L0.93-26.27Q1.07-27.88 2.12-28.69 3.17-29.49 4.54-29.79 5.91-30.08 7.37-30.08 8.84-30.08 9.86-30.08L9.86-30.08Q11.57-30.08 13.01-29.91 14.45-29.74 15.53-29.13 16.6-28.52 17.24-27.39 17.87-26.27 17.87-24.32L17.87-24.32Q17.87-23.34 17.8-22.58 17.72-21.83 17.53-21.12 17.33-20.41 16.94-19.6 16.55-18.8 15.92-17.77L15.92-17.77Q17.92-17.14 19.24-16.58 20.56-16.02 21.29-15.21 22.02-14.4 22.29-13.26 22.56-12.11 22.56-10.3L22.56-10.3Q22.56-8.15 21.63-6.25 20.7-4.35 19.17-2.93 17.63-1.51 15.58-0.71 13.53 0.1 11.23 0.1L11.23 0.1Q10.74 0.1 9.91-0.07 9.08-0.24 8.11-0.51 7.13-0.78 6.1-1.15 5.08-1.51 4.25-1.95 3.42-2.39 2.91-2.83 2.39-3.27 2.39-3.71L2.39-3.71ZM5.62-13.09L5.62-13.09Q5.71-11.91 5.52-10.64 5.32-9.38 5.18-8.2 5.03-7.03 5.08-5.98 5.13-4.93 5.66-4.1 6.2-3.27 7.42-2.66 8.64-2.05 10.79-1.81L10.79-1.81Q12.6-1.81 14.38-2.47 16.16-3.13 17.55-4.27 18.95-5.42 19.82-7.01 20.7-8.59 20.7-10.5L20.7-10.5Q20.7-11.77 20.26-12.65 19.82-13.53 19.09-14.09 18.36-14.65 17.36-14.89 16.36-15.14 15.23-15.14L15.23-15.14Q13.82-15.14 12.7-15.06 11.57-14.99 10.47-14.77 9.38-14.55 8.23-14.14 7.08-13.72 5.62-13.09ZM4.64-18.16L4.64-18.16Q4.64-17.77 4.69-17.36 4.74-16.94 4.86-16.63 4.98-16.31 5.27-16.09 5.57-15.87 6.05-15.87L6.05-15.87Q7.71-15.87 9.47-16.5 11.23-17.14 12.67-18.26 14.11-19.38 15.06-20.92 16.02-22.46 16.02-24.37L16.02-24.37Q16.02-24.56 15.92-24.93 15.82-25.29 15.48-25.68 15.14-26.07 14.45-26.44 13.77-26.81 12.62-27.05 11.47-27.29 9.77-27.34 8.06-27.39 5.62-27.15L5.62-27.15Q5.52-27.05 5.4-26.51 5.27-25.98 5.15-25.17 5.03-24.37 4.96-23.41 4.88-22.46 4.81-21.51 4.74-20.56 4.69-19.68 4.64-18.8 4.64-18.16ZM27.93 0.1L27.19-18.95Q27.78-18.95 28.2-18.99 28.61-19.04 28.9-18.51L28.9-18.51Q29.05-16.31 29.25-14.04 29.44-11.77 29.64-9.47 29.83-7.18 29.9-4.86 29.98-2.54 29.93-0.34L29.93-0.34Q29.93-0.05 29.78 0.02 29.64 0.1 29.37 0.07 29.1 0.05 28.73 0.02 28.37 0 27.93 0.1L27.93 0.1ZM24.36-27.69L24.36-27.69Q24.36-28.03 24.41-28.44 24.46-28.86 24.63-29.2 24.8-29.54 25.07-29.79 25.34-30.03 25.73-30.03L25.73-30.03Q26.32-30.03 26.9-29.98 27.49-29.93 28.02-29.76 28.56-29.59 28.9-29.22 29.25-28.86 29.25-28.17L29.25-28.17Q29.25-27 28.37-26.1 27.49-25.2 26.22-25.2L26.22-25.2Q25.24-25.2 24.8-25.95 24.36-26.71 24.36-27.69ZM27.19-27.44L27.19-27.44Q27.05-27.44 27.05-27.2 27.05-26.95 27.19-26.95L27.19-26.95Q27.39-26.95 27.39-27.2 27.39-27.44 27.19-27.44ZM31.15-7.08L31.15-7.08Q31.15-8.4 31.59-9.99 32.03-11.57 32.86-12.92 33.69-14.26 34.86-15.14 36.03-16.02 37.59-16.02L37.59-16.02Q38.76-16.02 39.67-15.8 40.57-15.58 41.38-15.06 42.18-14.55 42.89-13.84 43.6-13.13 44.38-12.21L44.38-12.21 44.09-37.26Q45.41-37.74 45.72-37.65 46.04-37.55 46.04-36.82L46.04-36.82Q46.04-36.72 46.02-36.52 45.99-36.33 45.99-36.28L45.99-36.28Q45.94-35.35 45.92-33.64 45.89-31.93 45.92-29.69 45.94-27.44 45.99-24.83 46.04-22.22 46.09-19.56 46.14-16.89 46.21-14.28 46.28-11.67 46.31-9.42 46.33-7.18 46.31-5.44 46.28-3.71 46.24-2.83L46.24-2.83Q45.7-1.71 44.75-1.12 43.79-0.54 42.7-0.27 41.6 0 40.42 0.05 39.25 0.1 38.23 0.1L38.23 0.1Q34.96 0.1 33.05-1.83 31.15-3.76 31.15-7.08ZM33.1-8.4L33.1-8.4Q33.1-7.18 33.3-5.98 33.49-4.79 33.98-3.86 34.47-2.93 35.35-2.37 36.23-1.81 37.59-1.81L37.59-1.81Q38.42-1.81 39.59-1.81 40.77-1.81 41.84-2.08 42.91-2.34 43.65-2.93 44.38-3.52 44.38-4.59L44.38-4.59Q44.38-5.86 44.01-7.5 43.65-9.13 42.89-10.62 42.13-12.11 40.99-13.16 39.84-14.21 38.28-14.21L38.28-14.21Q37.25-14.21 36.32-13.67 35.4-13.13 34.69-12.3 33.98-11.47 33.54-10.45 33.1-9.42 33.1-8.4ZM54.53-1.37L54.53-1.37Q54.53-1.42 54.53-1.61 54.53-1.81 54.58-1.86L54.58-1.86 59.66-17.48 51.9-16.94 52.63-19.24 60.98-20.41 67.72-31.84Q67.57-31.84 67.16-31.84 66.74-31.84 66.3-31.86 65.86-31.88 65.45-31.88 65.03-31.88 64.89-31.88L64.89-31.88Q62.98-31.88 61.1-31.74 59.22-31.59 57.32-31.4 55.41-31.2 53.53-31.05 51.65-30.91 49.75-30.91L49.75-30.91Q49.16-30.91 48.72-31.01 48.28-31.1 47.99-31.84L47.99-31.84 48.97-32.81Q48.97-32.81 49.97-32.91 50.97-33.01 52.58-33.18 54.19-33.35 56.24-33.54 58.29-33.74 60.37-33.96 62.44-34.18 64.37-34.35 66.3-34.52 67.72-34.67L67.72-34.67Q67.77-34.67 68.18-34.69 68.6-34.72 68.74-34.72L68.74-34.72Q68.89-34.72 69.23-34.72 69.57-34.72 69.91-34.62 70.26-34.52 70.48-34.33 70.7-34.13 70.5-33.74L70.5-33.74 64.49-20.61 70.94-20.61Q71.28-19.82 71.04-19.34 70.79-18.85 70.21-18.55 69.62-18.26 68.72-18.14 67.81-18.02 66.84-17.92 65.86-17.82 64.93-17.72 64.01-17.63 63.32-17.48L63.32-17.48Q62.39-15.87 61.47-14.06 60.54-12.26 59.73-10.4 58.93-8.54 58.32-6.62 57.71-4.69 57.37-2.83L57.37-2.83Q57.46-2.83 57.76-2.81 58.05-2.78 58.34-2.76 58.64-2.73 58.9-2.73 59.17-2.73 59.27-2.73L59.27-2.73Q61.66-2.73 63.96-3.13 66.25-3.52 68.57-3.96 70.89-4.39 73.21-4.79 75.53-5.18 78.02-5.18L78.02-5.18 78.02-3.27Q75.29-3.27 72.65-2.76 70.01-2.25 67.4-1.61 64.79-0.98 62.18-0.46 59.56 0.05 56.88 0.05L56.88 0.05Q56.58 0.05 56.14-0.02 55.71-0.1 55.36-0.27 55.02-0.44 54.78-0.68 54.53-0.93 54.53-1.37ZM80.61-8.94L80.61-8.94Q80.61-10.06 80.8-11.55 81-13.04 81.44-14.55 81.87-16.06 82.53-17.53 83.19-18.99 84.12-20.14 85.05-21.29 86.27-22 87.49-22.71 89-22.71L89-22.71Q90.57-22.71 91.91-21.63 93.25-20.56 94.2-18.85 95.16-17.14 95.64-15.04 96.13-12.94 96.03-10.94L96.03-10.94Q96.03-8.01 94.91-5.71 93.79-3.42 92.06-2 90.32-0.59 88.34-0.1 86.37 0.39 84.63-0.37 82.9-1.12 81.75-3.22 80.61-5.32 80.61-8.94ZM82.41-8.74L82.41-8.74Q82.56-5.76 83.44-4.15 84.32-2.54 85.56-2.03 86.81-1.51 88.27-2 89.74-2.49 91.01-3.74 92.28-4.98 93.18-6.86 94.08-8.74 94.18-11.08L94.18-11.08Q94.28-12.84 93.91-14.5 93.54-16.16 92.89-17.46 92.23-18.75 91.27-19.51 90.32-20.26 89.1-20.26L89.1-20.26Q87.93-20.26 87-19.68 86.07-19.09 85.32-18.09 84.56-17.09 84.02-15.82 83.49-14.55 83.12-13.28 82.75-12.01 82.58-10.82 82.41-9.62 82.41-8.74ZM99.21-0.24L99.21-0.24Q99.11-1.03 99.04-2.51 98.96-4 98.89-5.88 98.82-7.76 98.77-9.81 98.72-11.87 98.67-13.72 98.62-15.58 98.55-17.07 98.47-18.55 98.33-19.34L98.33-19.34Q98.33-19.38 98.3-19.58 98.28-19.78 98.25-20.02 98.23-20.26 98.23-20.43 98.23-20.61 98.23-20.7L98.23-20.7Q98.96-21.29 99.47-21.09 99.99-20.9 100.33-20.24 100.67-19.58 100.82-18.6 100.96-17.63 101.04-16.65 101.11-15.67 101.11-14.87 101.11-14.06 101.11-13.72L101.11-13.72Q101.21-14.55 101.4-15.67 101.6-16.8 101.99-17.97 102.38-19.14 102.94-20.29 103.5-21.44 104.33-22.31 105.16-23.19 106.21-23.68 107.26-24.17 108.63-24.07L108.63-24.07Q110.78-23.97 112.17-22.9 113.56-21.83 114.37-20.02 115.17-18.21 115.54-15.87 115.91-13.53 116.03-10.89 116.15-8.25 116.1-5.54 116.05-2.83 116.05-0.34L116.05-0.34Q115.61-0.24 115.17-0.02 114.73 0.2 114.44 0.17 114.15 0.15 114.03-0.27 113.9-0.68 114.1-1.9L114.1-1.9Q114.15-2.78 114.27-4.61 114.39-6.45 114.37-8.69 114.34-10.94 114.1-13.33 113.85-15.72 113.2-17.7 112.54-19.68 111.32-20.92 110.09-22.17 108.14-22.17L108.14-22.17Q106.14-21.34 104.8-19.04 103.45-16.75 102.65-13.67 101.84-10.6 101.48-7.01 101.11-3.42 101.06 0L101.06 0Q100.96-0.05 100.7-0.05 100.43-0.05 100.11-0.07 99.79-0.1 99.52-0.15 99.26-0.2 99.21-0.24ZM118.59-11.47L118.59-11.47Q118.59-12.94 119.22-14.72 119.86-16.5 120.96-18.04 122.06-19.58 123.45-20.63 124.84-21.68 126.35-21.68L126.35-21.68Q127.18-21.68 127.99-21.34 128.79-21 129.55-20.43 130.31-19.87 130.92-19.17 131.53-18.46 131.87-17.68 132.21-16.89 132.24-16.16 132.26-15.43 131.82-14.89L131.82-14.89 121.52-12.99Q121.32-12.94 121.18-12.52 121.03-12.11 120.93-11.47 120.83-10.84 120.76-10.08 120.69-9.33 120.64-8.62 120.59-7.91 120.59-7.35 120.59-6.79 120.59-6.49L120.59-6.49Q120.59-5.13 121.25-4.27 121.91-3.42 122.93-2.98 123.96-2.54 125.25-2.39 126.55-2.25 127.82-2.25 129.09-2.25 130.21-2.34 131.33-2.44 132.07-2.44L132.07-2.44Q132.07-2.25 131.92-2 131.77-1.76 131.58-1.54 131.38-1.32 131.19-1.15 130.99-0.98 130.94-0.93L130.94-0.93Q130.55-0.83 129.75-0.66 128.94-0.49 128.04-0.34 127.13-0.2 126.35-0.1 125.57 0 125.28 0L125.28 0Q123.76 0.29 122.64-0.05 121.52-0.39 120.74-1.22 119.96-2.05 119.47-3.25 118.98-4.44 118.74-5.81 118.49-7.18 118.47-8.64 118.44-10.11 118.59-11.47ZM125.67-19.82L125.67-19.82Q125.23-19.82 124.52-19.36 123.81-18.9 123.2-18.19 122.59-17.48 122.18-16.67 121.76-15.87 121.91-15.28L121.91-15.28Q123.18-15.14 124.55-15.33 125.91-15.53 127.04-15.94 128.16-16.36 128.89-16.92 129.62-17.48 129.6-18.07 129.57-18.65 128.67-19.12 127.77-19.58 125.67-19.82Z" opacity="1" transform="matrix(1,0,0,1,0,0)" fill="white" class="wordmark-text-0"></path></svg></g><g><svg xmlns="http://www.w3.org/2000/svg" xml:space="preserve" viewBox="10.064 2.5709999999999997 27.872 42.859" x="226.9364751141479" y="3.552713678800501e-15" height="61.21880981951951" width="39.8117237287302" class="icon-dxe-0" data-fill-palette-color="accent" id="SvgjsSvg8554"><path d="M19.119 32h0.004v1.785c0 0.289 0.059 0.563 0.147 0.822h-0.151c-0.719 0-1.305-0.584-1.305-1.303S18.4 32 19.119 32M17.814 36.912c0-0.719 0.586-1.305 1.305-1.305h0.777a2.534 2.534 0 0 0 3.546 0h1.397a1.305 1.305 0 0 1 0 2.608h-5.723a1.305 1.305 0 0 1-1.302-1.303M24.07 34.607c0.089-0.26 0.147-0.533 0.147-0.822v-0.023c0.167 0.289 0.338 0.572 0.527 0.846zM24.842 39.215a1.305 1.305 0 0 1 0 2.608h-5.723c-0.719 0-1.305-0.584-1.305-1.303s0.586-1.305 1.305-1.305zM17.814 44.127c0-0.719 0.586-1.305 1.305-1.305h5.723a1.305 1.305 0 0 1 0 2.608h-5.723a1.306 1.306 0 0 1-1.305-1.303" fill="black"></path><path d="M37.936 43.939h-2.783c-0.958 0-1.887 0.195-2.76 0.584l-0.533 0.236a7.8 7.8 0 0 1-3.172 0.67h-1.95a2.283 2.283 0 0 0-0.481-3.11 2.29 2.29 0 0 0 0.888-1.803c0-0.734-0.352-1.383-0.888-1.805 0.479-0.375 0.798-0.932 0.864-1.568a11.95 11.95 0 0 0 4.406 2.23 0.497 0.497 0 0 0 0.609-0.355 0.5 0.5 0 0 0-0.355-0.611 10.94 10.94 0 0 1-7.564-7.004v-0.313a0.5 0.5 0 0 0-1 0v2.695a1.548 1.548 0 0 1-3.094 0v-4.641c0-1.025 0.833-1.857 1.856-1.857h4.566c1.275 0 2.41 0.762 2.893 1.943a7.57 7.57 0 0 0 7.03 4.721h1.467v9.988zM32.264 2.571H13.279a3.22 3.22 0 0 0-3.215 3.215v13.729a3.217 3.217 0 0 0 3.215 3.212h8.843v3.326h1.3v-3.326h8.842a3.217 3.217 0 0 0 3.215-3.212V5.786a3.22 3.22 0 0 0-3.215-3.215m-13.28 11.558a0.65 0.65 0 0 1-0.65 0.649h-2.958a0.65 0.65 0 0 1-0.65-0.649v-2.958a0.65 0.65 0 0 1 0.65-0.65h2.958a0.65 0.65 0 0 1 0.65 0.65z m5.917 0a0.65 0.65 0 0 1-0.65 0.649h-2.958a0.65 0.65 0 0 1-0.65-0.649v-2.958a0.65 0.65 0 0 1 0.65-0.65h2.958a0.65 0.65 0 0 1 0.65 0.65z m5.916 0a0.65 0.65 0 0 1-0.65 0.649h-2.958a0.65 0.65 0 0 1-0.65-0.649v-2.958a0.65 0.65 0 0 1 0.65-0.65h2.958a0.65 0.65 0 0 1 0.65 0.65z" fill="black"></path></svg></g></svg></g></svg></g></svg></g></svg></g></svg></g><defs><mask></mask></defs></svg><rect width="266.7481988428781" height="61.218809819519514" fill="black" stroke="none" visibility="hidden"></rect></g></mask><linearGradient x1="0.054" x2="0.941" y1="0.5" y2="0.5" id="71a8d877-cc90-4e42-8fb1-f188ba82fa3e"><stop stop-color="#9c7945" offset="0"></stop><stop stop-color="#faf3aa" offset="0.498"></stop><stop stop-color="#9c7945" offset="1"></stop></linearGradient><rect width="266.7481988428781" height="61.218809819519514" fill="url(#71a8d877-cc90-4e42-8fb1-f188ba82fa3e)" mask="url(#377b8972-c350-4ee5-b2b4-9ef05ede6c0b)" data-fill-palette-color="primary"></rect><mask id="47fa9e80-c2db-4cd0-89ab-db3eeb48467d"><g id="SvgjsG8579"><svg viewBox="0 0 266.7481988428781 61.218809819519514" height="61.218809819519514" width="266.7481988428781"><g><svg viewBox="0 0 266.7481988428781 61.218809819519514" height="61.218809819519514" width="266.7481988428781"><g><svg viewBox="0 0 266.7481988428781 61.218809819519514" height="61.218809819519514" width="266.7481988428781"><g id="SvgjsG8578"><svg viewBox="0 0 266.7481988428781 61.218809819519514" height="61.218809819519514" width="266.7481988428781" id="SvgjsSvg8577"><g><svg viewBox="0 0 266.7481988428781 61.218809819519514" height="61.218809819519514" width="266.7481988428781"><g><svg><g></g><g></g></svg></g><g><svg><g><svg></svg></g><g></g></svg></g><g id="SvgjsG8576"><svg viewBox="0 0 266.7481988428781 61.218809819519514" height="61.218809819519514" width="266.7481988428781"><g transform="matrix(1,0,0,1,0,0)"><svg width="212.48308490953946" viewBox="0.93 -37.664208984375 131.31086955597598 37.834208984375" height="61.218809819519514" data-palette-color="url(#71a8d877-cc90-4e42-8fb1-f188ba82fa3e)"></svg></g><g><svg xmlns="http://www.w3.org/2000/svg" xml:space="preserve" viewBox="10.064 2.5709999999999997 27.872 42.859" x="226.9364751141479" y="3.552713678800501e-15" height="61.21880981951951" width="39.8117237287302" class="icon-dxe-0" data-fill-palette-color="accent" id="SvgjsSvg8575"><path d="M19.119 32h0.004v1.785c0 0.289 0.059 0.563 0.147 0.822h-0.151c-0.719 0-1.305-0.584-1.305-1.303S18.4 32 19.119 32M17.814 36.912c0-0.719 0.586-1.305 1.305-1.305h0.777a2.534 2.534 0 0 0 3.546 0h1.397a1.305 1.305 0 0 1 0 2.608h-5.723a1.305 1.305 0 0 1-1.302-1.303M24.07 34.607c0.089-0.26 0.147-0.533 0.147-0.822v-0.023c0.167 0.289 0.338 0.572 0.527 0.846zM24.842 39.215a1.305 1.305 0 0 1 0 2.608h-5.723c-0.719 0-1.305-0.584-1.305-1.303s0.586-1.305 1.305-1.305zM17.814 44.127c0-0.719 0.586-1.305 1.305-1.305h5.723a1.305 1.305 0 0 1 0 2.608h-5.723a1.306 1.306 0 0 1-1.305-1.303" fill="white"></path><path d="M37.936 43.939h-2.783c-0.958 0-1.887 0.195-2.76 0.584l-0.533 0.236a7.8 7.8 0 0 1-3.172 0.67h-1.95a2.283 2.283 0 0 0-0.481-3.11 2.29 2.29 0 0 0 0.888-1.803c0-0.734-0.352-1.383-0.888-1.805 0.479-0.375 0.798-0.932 0.864-1.568a11.95 11.95 0 0 0 4.406 2.23 0.497 0.497 0 0 0 0.609-0.355 0.5 0.5 0 0 0-0.355-0.611 10.94 10.94 0 0 1-7.564-7.004v-0.313a0.5 0.5 0 0 0-1 0v2.695a1.548 1.548 0 0 1-3.094 0v-4.641c0-1.025 0.833-1.857 1.856-1.857h4.566c1.275 0 2.41 0.762 2.893 1.943a7.57 7.57 0 0 0 7.03 4.721h1.467v9.988zM32.264 2.571H13.279a3.22 3.22 0 0 0-3.215 3.215v13.729a3.217 3.217 0 0 0 3.215 3.212h8.843v3.326h1.3v-3.326h8.842a3.217 3.217 0 0 0 3.215-3.212V5.786a3.22 3.22 0 0 0-3.215-3.215m-13.28 11.558a0.65 0.65 0 0 1-0.65 0.649h-2.958a0.65 0.65 0 0 1-0.65-0.649v-2.958a0.65 0.65 0 0 1 0.65-0.65h2.958a0.65 0.65 0 0 1 0.65 0.65z m5.917 0a0.65 0.65 0 0 1-0.65 0.649h-2.958a0.65 0.65 0 0 1-0.65-0.649v-2.958a0.65 0.65 0 0 1 0.65-0.65h2.958a0.65 0.65 0 0 1 0.65 0.65z m5.916 0a0.65 0.65 0 0 1-0.65 0.649h-2.958a0.65 0.65 0 0 1-0.65-0.649v-2.958a0.65 0.65 0 0 1 0.65-0.65h2.958a0.65 0.65 0 0 1 0.65 0.65z" fill="white"></path></svg></g></svg></g></svg></g></svg></g></svg></g></svg></g><defs><mask></mask></defs><mask><g id="SvgjsG8574"><svg viewBox="0 0 266.7481988428781 61.218809819519514" height="61.218809819519514" width="266.7481988428781"><g><svg viewBox="0 0 266.7481988428781 61.218809819519514" height="61.218809819519514" width="266.7481988428781"><g><svg viewBox="0 0 266.7481988428781 61.218809819519514" height="61.218809819519514" width="266.7481988428781"><g id="SvgjsG8573"><svg viewBox="0 0 266.7481988428781 61.218809819519514" height="61.218809819519514" width="266.7481988428781" id="SvgjsSvg8572"><g><svg viewBox="0 0 266.7481988428781 61.218809819519514" height="61.218809819519514" width="266.7481988428781"><g><svg><g></g><g></g></svg></g><g><svg><g><svg></svg></g><g></g></svg></g><g id="SvgjsG8571"><svg viewBox="0 0 266.7481988428781 61.218809819519514" height="61.218809819519514" width="266.7481988428781"><g transform="matrix(1,0,0,1,0,0)"><svg width="212.48308490953946" viewBox="0.93 -37.664208984375 131.31086955597598 37.834208984375" height="61.218809819519514" data-palette-color="url(#71a8d877-cc90-4e42-8fb1-f188ba82fa3e)"><path d="M2.39-3.71L2.39-24.37Q2.2-24.41 1.93-24.66 1.66-24.9 1.44-25.2 1.22-25.49 1.07-25.78 0.93-26.07 0.93-26.27L0.93-26.27Q1.07-27.88 2.12-28.69 3.17-29.49 4.54-29.79 5.91-30.08 7.37-30.08 8.84-30.08 9.86-30.08L9.86-30.08Q11.57-30.08 13.01-29.91 14.45-29.74 15.53-29.13 16.6-28.52 17.24-27.39 17.87-26.27 17.87-24.32L17.87-24.32Q17.87-23.34 17.8-22.58 17.72-21.83 17.53-21.12 17.33-20.41 16.94-19.6 16.55-18.8 15.92-17.77L15.92-17.77Q17.92-17.14 19.24-16.58 20.56-16.02 21.29-15.21 22.02-14.4 22.29-13.26 22.56-12.11 22.56-10.3L22.56-10.3Q22.56-8.15 21.63-6.25 20.7-4.35 19.17-2.93 17.63-1.51 15.58-0.71 13.53 0.1 11.23 0.1L11.23 0.1Q10.74 0.1 9.91-0.07 9.08-0.24 8.11-0.51 7.13-0.78 6.1-1.15 5.08-1.51 4.25-1.95 3.42-2.39 2.91-2.83 2.39-3.27 2.39-3.71L2.39-3.71ZM5.62-13.09L5.62-13.09Q5.71-11.91 5.52-10.64 5.32-9.38 5.18-8.2 5.03-7.03 5.08-5.98 5.13-4.93 5.66-4.1 6.2-3.27 7.42-2.66 8.64-2.05 10.79-1.81L10.79-1.81Q12.6-1.81 14.38-2.47 16.16-3.13 17.55-4.27 18.95-5.42 19.82-7.01 20.7-8.59 20.7-10.5L20.7-10.5Q20.7-11.77 20.26-12.65 19.82-13.53 19.09-14.09 18.36-14.65 17.36-14.89 16.36-15.14 15.23-15.14L15.23-15.14Q13.82-15.14 12.7-15.06 11.57-14.99 10.47-14.77 9.38-14.55 8.23-14.14 7.08-13.72 5.62-13.09ZM4.64-18.16L4.64-18.16Q4.64-17.77 4.69-17.36 4.74-16.94 4.86-16.63 4.98-16.31 5.27-16.09 5.57-15.87 6.05-15.87L6.05-15.87Q7.71-15.87 9.47-16.5 11.23-17.14 12.67-18.26 14.11-19.38 15.06-20.92 16.02-22.46 16.02-24.37L16.02-24.37Q16.02-24.56 15.92-24.93 15.82-25.29 15.48-25.68 15.14-26.07 14.45-26.44 13.77-26.81 12.62-27.05 11.47-27.29 9.77-27.34 8.06-27.39 5.62-27.15L5.62-27.15Q5.52-27.05 5.4-26.51 5.27-25.98 5.15-25.17 5.03-24.37 4.96-23.41 4.88-22.46 4.81-21.51 4.74-20.56 4.69-19.68 4.64-18.8 4.64-18.16ZM27.93 0.1L27.19-18.95Q27.78-18.95 28.2-18.99 28.61-19.04 28.9-18.51L28.9-18.51Q29.05-16.31 29.25-14.04 29.44-11.77 29.64-9.47 29.83-7.18 29.9-4.86 29.98-2.54 29.93-0.34L29.93-0.34Q29.93-0.05 29.78 0.02 29.64 0.1 29.37 0.07 29.1 0.05 28.73 0.02 28.37 0 27.93 0.1L27.93 0.1ZM24.36-27.69L24.36-27.69Q24.36-28.03 24.41-28.44 24.46-28.86 24.63-29.2 24.8-29.54 25.07-29.79 25.34-30.03 25.73-30.03L25.73-30.03Q26.32-30.03 26.9-29.98 27.49-29.93 28.02-29.76 28.56-29.59 28.9-29.22 29.25-28.86 29.25-28.17L29.25-28.17Q29.25-27 28.37-26.1 27.49-25.2 26.22-25.2L26.22-25.2Q25.24-25.2 24.8-25.95 24.36-26.71 24.36-27.69ZM27.19-27.44L27.19-27.44Q27.05-27.44 27.05-27.2 27.05-26.95 27.19-26.95L27.19-26.95Q27.39-26.95 27.39-27.2 27.39-27.44 27.19-27.44ZM31.15-7.08L31.15-7.08Q31.15-8.4 31.59-9.99 32.03-11.57 32.86-12.92 33.69-14.26 34.86-15.14 36.03-16.02 37.59-16.02L37.59-16.02Q38.76-16.02 39.67-15.8 40.57-15.58 41.38-15.06 42.18-14.55 42.89-13.84 43.6-13.13 44.38-12.21L44.38-12.21 44.09-37.26Q45.41-37.74 45.72-37.65 46.04-37.55 46.04-36.82L46.04-36.82Q46.04-36.72 46.02-36.52 45.99-36.33 45.99-36.28L45.99-36.28Q45.94-35.35 45.92-33.64 45.89-31.93 45.92-29.69 45.94-27.44 45.99-24.83 46.04-22.22 46.09-19.56 46.14-16.89 46.21-14.28 46.28-11.67 46.31-9.42 46.33-7.18 46.31-5.44 46.28-3.71 46.24-2.83L46.24-2.83Q45.7-1.71 44.75-1.12 43.79-0.54 42.7-0.27 41.6 0 40.42 0.05 39.25 0.1 38.23 0.1L38.23 0.1Q34.96 0.1 33.05-1.83 31.15-3.76 31.15-7.08ZM33.1-8.4L33.1-8.4Q33.1-7.18 33.3-5.98 33.49-4.79 33.98-3.86 34.47-2.93 35.35-2.37 36.23-1.81 37.59-1.81L37.59-1.81Q38.42-1.81 39.59-1.81 40.77-1.81 41.84-2.08 42.91-2.34 43.65-2.93 44.38-3.52 44.38-4.59L44.38-4.59Q44.38-5.86 44.01-7.5 43.65-9.13 42.89-10.62 42.13-12.11 40.99-13.16 39.84-14.21 38.28-14.21L38.28-14.21Q37.25-14.21 36.32-13.67 35.4-13.13 34.69-12.3 33.98-11.47 33.54-10.45 33.1-9.42 33.1-8.4ZM54.53-1.37L54.53-1.37Q54.53-1.42 54.53-1.61 54.53-1.81 54.58-1.86L54.58-1.86 59.66-17.48 51.9-16.94 52.63-19.24 60.98-20.41 67.72-31.84Q67.57-31.84 67.16-31.84 66.74-31.84 66.3-31.86 65.86-31.88 65.45-31.88 65.03-31.88 64.89-31.88L64.89-31.88Q62.98-31.88 61.1-31.74 59.22-31.59 57.32-31.4 55.41-31.2 53.53-31.05 51.65-30.91 49.75-30.91L49.75-30.91Q49.16-30.91 48.72-31.01 48.28-31.1 47.99-31.84L47.99-31.84 48.97-32.81Q48.97-32.81 49.97-32.91 50.97-33.01 52.58-33.18 54.19-33.35 56.24-33.54 58.29-33.74 60.37-33.96 62.44-34.18 64.37-34.35 66.3-34.52 67.72-34.67L67.72-34.67Q67.77-34.67 68.18-34.69 68.6-34.72 68.74-34.72L68.74-34.72Q68.89-34.72 69.23-34.72 69.57-34.72 69.91-34.62 70.26-34.52 70.48-34.33 70.7-34.13 70.5-33.74L70.5-33.74 64.49-20.61 70.94-20.61Q71.28-19.82 71.04-19.34 70.79-18.85 70.21-18.55 69.62-18.26 68.72-18.14 67.81-18.02 66.84-17.92 65.86-17.82 64.93-17.72 64.01-17.63 63.32-17.48L63.32-17.48Q62.39-15.87 61.47-14.06 60.54-12.26 59.73-10.4 58.93-8.54 58.32-6.62 57.71-4.69 57.37-2.83L57.37-2.83Q57.46-2.83 57.76-2.81 58.05-2.78 58.34-2.76 58.64-2.73 58.9-2.73 59.17-2.73 59.27-2.73L59.27-2.73Q61.66-2.73 63.96-3.13 66.25-3.52 68.57-3.96 70.89-4.39 73.21-4.79 75.53-5.18 78.02-5.18L78.02-5.18 78.02-3.27Q75.29-3.27 72.65-2.76 70.01-2.25 67.4-1.61 64.79-0.98 62.18-0.46 59.56 0.05 56.88 0.05L56.88 0.05Q56.58 0.05 56.14-0.02 55.71-0.1 55.36-0.27 55.02-0.44 54.78-0.68 54.53-0.93 54.53-1.37ZM80.61-8.94L80.61-8.94Q80.61-10.06 80.8-11.55 81-13.04 81.44-14.55 81.87-16.06 82.53-17.53 83.19-18.99 84.12-20.14 85.05-21.29 86.27-22 87.49-22.71 89-22.71L89-22.71Q90.57-22.71 91.91-21.63 93.25-20.56 94.2-18.85 95.16-17.14 95.64-15.04 96.13-12.94 96.03-10.94L96.03-10.94Q96.03-8.01 94.91-5.71 93.79-3.42 92.06-2 90.32-0.59 88.34-0.1 86.37 0.39 84.63-0.37 82.9-1.12 81.75-3.22 80.61-5.32 80.61-8.94ZM82.41-8.74L82.41-8.74Q82.56-5.76 83.44-4.15 84.32-2.54 85.56-2.03 86.81-1.51 88.27-2 89.74-2.49 91.01-3.74 92.28-4.98 93.18-6.86 94.08-8.74 94.18-11.08L94.18-11.08Q94.28-12.84 93.91-14.5 93.54-16.16 92.89-17.46 92.23-18.75 91.27-19.51 90.32-20.26 89.1-20.26L89.1-20.26Q87.93-20.26 87-19.68 86.07-19.09 85.32-18.09 84.56-17.09 84.02-15.82 83.49-14.55 83.12-13.28 82.75-12.01 82.58-10.82 82.41-9.62 82.41-8.74ZM99.21-0.24L99.21-0.24Q99.11-1.03 99.04-2.51 98.96-4 98.89-5.88 98.82-7.76 98.77-9.81 98.72-11.87 98.67-13.72 98.62-15.58 98.55-17.07 98.47-18.55 98.33-19.34L98.33-19.34Q98.33-19.38 98.3-19.58 98.28-19.78 98.25-20.02 98.23-20.26 98.23-20.43 98.23-20.61 98.23-20.7L98.23-20.7Q98.96-21.29 99.47-21.09 99.99-20.9 100.33-20.24 100.67-19.58 100.82-18.6 100.96-17.63 101.04-16.65 101.11-15.67 101.11-14.87 101.11-14.06 101.11-13.72L101.11-13.72Q101.21-14.55 101.4-15.67 101.6-16.8 101.99-17.97 102.38-19.14 102.94-20.29 103.5-21.44 104.33-22.31 105.16-23.19 106.21-23.68 107.26-24.17 108.63-24.07L108.63-24.07Q110.78-23.97 112.17-22.9 113.56-21.83 114.37-20.02 115.17-18.21 115.54-15.87 115.91-13.53 116.03-10.89 116.15-8.25 116.1-5.54 116.05-2.83 116.05-0.34L116.05-0.34Q115.61-0.24 115.17-0.02 114.73 0.2 114.44 0.17 114.15 0.15 114.03-0.27 113.9-0.68 114.1-1.9L114.1-1.9Q114.15-2.78 114.27-4.61 114.39-6.45 114.37-8.69 114.34-10.94 114.1-13.33 113.85-15.72 113.2-17.7 112.54-19.68 111.32-20.92 110.09-22.17 108.14-22.17L108.14-22.17Q106.14-21.34 104.8-19.04 103.45-16.75 102.65-13.67 101.84-10.6 101.48-7.01 101.11-3.42 101.06 0L101.06 0Q100.96-0.05 100.7-0.05 100.43-0.05 100.11-0.07 99.79-0.1 99.52-0.15 99.26-0.2 99.21-0.24ZM118.59-11.47L118.59-11.47Q118.59-12.94 119.22-14.72 119.86-16.5 120.96-18.04 122.06-19.58 123.45-20.63 124.84-21.68 126.35-21.68L126.35-21.68Q127.18-21.68 127.99-21.34 128.79-21 129.55-20.43 130.31-19.87 130.92-19.17 131.53-18.46 131.87-17.68 132.21-16.89 132.24-16.16 132.26-15.43 131.82-14.89L131.82-14.89 121.52-12.99Q121.32-12.94 121.18-12.52 121.03-12.11 120.93-11.47 120.83-10.84 120.76-10.08 120.69-9.33 120.64-8.62 120.59-7.91 120.59-7.35 120.59-6.79 120.59-6.49L120.59-6.49Q120.59-5.13 121.25-4.27 121.91-3.42 122.93-2.98 123.96-2.54 125.25-2.39 126.55-2.25 127.82-2.25 129.09-2.25 130.21-2.34 131.33-2.44 132.07-2.44L132.07-2.44Q132.07-2.25 131.92-2 131.77-1.76 131.58-1.54 131.38-1.32 131.19-1.15 130.99-0.98 130.94-0.93L130.94-0.93Q130.55-0.83 129.75-0.66 128.94-0.49 128.04-0.34 127.13-0.2 126.35-0.1 125.57 0 125.28 0L125.28 0Q123.76 0.29 122.64-0.05 121.52-0.39 120.74-1.22 119.96-2.05 119.47-3.25 118.98-4.44 118.74-5.81 118.49-7.18 118.47-8.64 118.44-10.11 118.59-11.47ZM125.67-19.82L125.67-19.82Q125.23-19.82 124.52-19.36 123.81-18.9 123.2-18.19 122.59-17.48 122.18-16.67 121.76-15.87 121.91-15.28L121.91-15.28Q123.18-15.14 124.55-15.33 125.91-15.53 127.04-15.94 128.16-16.36 128.89-16.92 129.62-17.48 129.6-18.07 129.57-18.65 128.67-19.12 127.77-19.58 125.67-19.82Z" opacity="1" transform="matrix(1,0,0,1,0,0)" fill="black" class="wordmark-text-0"></path></svg></g><g><svg xmlns="http://www.w3.org/2000/svg" xml:space="preserve" viewBox="10.064 2.5709999999999997 27.872 42.859" x="226.9364751141479" y="3.552713678800501e-15" height="61.21880981951951" width="39.8117237287302" class="icon-dxe-0" data-fill-palette-color="accent" id="SvgjsSvg8570"><path d="M19.119 32h0.004v1.785c0 0.289 0.059 0.563 0.147 0.822h-0.151c-0.719 0-1.305-0.584-1.305-1.303S18.4 32 19.119 32M17.814 36.912c0-0.719 0.586-1.305 1.305-1.305h0.777a2.534 2.534 0 0 0 3.546 0h1.397a1.305 1.305 0 0 1 0 2.608h-5.723a1.305 1.305 0 0 1-1.302-1.303M24.07 34.607c0.089-0.26 0.147-0.533 0.147-0.822v-0.023c0.167 0.289 0.338 0.572 0.527 0.846zM24.842 39.215a1.305 1.305 0 0 1 0 2.608h-5.723c-0.719 0-1.305-0.584-1.305-1.303s0.586-1.305 1.305-1.305zM17.814 44.127c0-0.719 0.586-1.305 1.305-1.305h5.723a1.305 1.305 0 0 1 0 2.608h-5.723a1.306 1.306 0 0 1-1.305-1.303" fill="black"></path><path d="M37.936 43.939h-2.783c-0.958 0-1.887 0.195-2.76 0.584l-0.533 0.236a7.8 7.8 0 0 1-3.172 0.67h-1.95a2.283 2.283 0 0 0-0.481-3.11 2.29 2.29 0 0 0 0.888-1.803c0-0.734-0.352-1.383-0.888-1.805 0.479-0.375 0.798-0.932 0.864-1.568a11.95 11.95 0 0 0 4.406 2.23 0.497 0.497 0 0 0 0.609-0.355 0.5 0.5 0 0 0-0.355-0.611 10.94 10.94 0 0 1-7.564-7.004v-0.313a0.5 0.5 0 0 0-1 0v2.695a1.548 1.548 0 0 1-3.094 0v-4.641c0-1.025 0.833-1.857 1.856-1.857h4.566c1.275 0 2.41 0.762 2.893 1.943a7.57 7.57 0 0 0 7.03 4.721h1.467v9.988zM32.264 2.571H13.279a3.22 3.22 0 0 0-3.215 3.215v13.729a3.217 3.217 0 0 0 3.215 3.212h8.843v3.326h1.3v-3.326h8.842a3.217 3.217 0 0 0 3.215-3.212V5.786a3.22 3.22 0 0 0-3.215-3.215m-13.28 11.558a0.65 0.65 0 0 1-0.65 0.649h-2.958a0.65 0.65 0 0 1-0.65-0.649v-2.958a0.65 0.65 0 0 1 0.65-0.65h2.958a0.65 0.65 0 0 1 0.65 0.65z m5.917 0a0.65 0.65 0 0 1-0.65 0.649h-2.958a0.65 0.65 0 0 1-0.65-0.649v-2.958a0.65 0.65 0 0 1 0.65-0.65h2.958a0.65 0.65 0 0 1 0.65 0.65z m5.916 0a0.65 0.65 0 0 1-0.65 0.649h-2.958a0.65 0.65 0 0 1-0.65-0.649v-2.958a0.65 0.65 0 0 1 0.65-0.65h2.958a0.65 0.65 0 0 1 0.65 0.65z" fill="black"></path></svg></g></svg></g></svg></g></svg></g></svg></g></svg></g><defs><mask></mask></defs></svg><rect width="266.7481988428781" height="61.218809819519514" fill="black" stroke="none" visibility="hidden"></rect></g></mask></svg><rect width="266.7481988428781" height="61.218809819519514" fill="black" stroke="none" visibility="hidden"></rect></g></mask><linearGradient x1="0.054" x2="0.941" y1="0.5" y2="0.5" id="e886e238-7772-465e-87f8-47992e1e6a34"><stop stop-color="#9c7945" offset="0"></stop><stop stop-color="#faf3aa" offset="0.498"></stop><stop stop-color="#9c7945" offset="1"></stop></linearGradient><rect width="266.7481988428781" height="61.218809819519514" fill="url(#e886e238-7772-465e-87f8-47992e1e6a34)" mask="url(#47fa9e80-c2db-4cd0-89ab-db3eeb48467d)" data-fill-palette-color="accent"></rect></svg><rect width="266.7481988428781" height="61.218809819519514" fill="none" stroke="none" visibility="hidden"></rect></g></svg></g></svg>